<?xml version="1.0" encoding="utf-8"?>
<!-- Generator: Adobe Illustrator 21.1.0, SVG Export Plug-In . SVG Version: 6.00 Build 0)  -->
<svg version="1.1" id="Layer_1" xmlns="http://www.w3.org/2000/svg" xmlns:xlink="http://www.w3.org/1999/xlink" x="0px" y="0px"
	 viewBox="0 0 512 512" style="enable-background:new 0 0 512 512;" xml:space="preserve">
<style type="text/css">
	.st0{fill:#007ACC;}
	.st1{fill:#E34E26;}
	.st2{fill:#EF662A;}
	.st3{fill:#FFFFFF;}
	.st4{fill:#EBEBEB;}
	.st5{fill:#E29530;}
	.st6{fill:#A05D0E;}
	.st7{fill:#261300;stroke:#000000;stroke-miterlimit:10;}
	.st8{fill:#E5A229;}
	.st9{fill:#F1BE21;}
	.st10{fill:#EBEAEA;}
	.st11{fill:#231F20;}
	.st12{fill:#116BAF;}
	.st13{fill:#FFFFFF;stroke:#FFFFFF;stroke-miterlimit:10;}
	.st14{fill:#CF649A;}
	.st15{fill:url(#SVGID_1_);}
	.st16{fill:url(#SVGID_2_);}
	.st17{fill:url(#SVGID_3_);}
	.st18{fill:url(#SVGID_4_);}
	.st19{fill:url(#SVGID_5_);}
	.st20{fill:url(#SVGID_6_);}
</style>
<g>
	
		<linearGradient id="SVGID_1_" gradientUnits="userSpaceOnUse" x1="-693.7225" y1="792.9692" x2="-691.4273" y2="790.5206" gradientTransform="matrix(82.4907 0 0 -81.4303 57461.2695 64711.3125)">
		<stop  offset="0" style="stop-color:#F9A03C"/>
		<stop  offset="1" style="stop-color:#F7974E"/>
	</linearGradient>
	<path class="st15" d="M420.3,333.2c0.1-1.4,0.2-2.8,0.3-4.2c0.1-1.6-99.2-95.9-99.2-95.9H319C319,233.2,419.7,339.3,420.3,333.2
		L420.3,333.2L420.3,333.2z"/>
	
		<linearGradient id="SVGID_2_" gradientUnits="userSpaceOnUse" x1="-685.6026" y1="789.3162" x2="-681.2125" y2="785.0344" gradientTransform="matrix(40.2105 0 0 -40.4122 27647.6758 32074.4609)">
		<stop  offset="0" style="stop-color:#F9A03C"/>
		<stop  offset="1" style="stop-color:#F7974E"/>
	</linearGradient>
	<path class="st16" d="M208.4,300.5c-0.1,0.3-0.3,0.6-0.4,0.9c-0.1,0.3-0.3,0.6-0.4,0.9c-3.2,6.6,44.3,53,48.1,47.4
		c0.2-0.2,0.3-0.5,0.5-0.8c0.2-0.3,0.4-0.6,0.6-0.9C259.9,343.4,209.8,297.5,208.4,300.5L208.4,300.5L208.4,300.5z"/>
	
		<linearGradient id="SVGID_3_" gradientUnits="userSpaceOnUse" x1="-685.285" y1="789.0318" x2="-681.3795" y2="784.554" gradientTransform="matrix(41.0403 0 0 -39.9333 28284.6816 31745.9492)">
		<stop  offset="0" style="stop-color:#F9A03C"/>
		<stop  offset="1" style="stop-color:#F7974E"/>
	</linearGradient>
	<path class="st17" d="M275.5,365.7c-0.1,0.3-1.1,1.9-2,2.8c-0.1,0.3,46.3,46.4,46.3,46.4h4.2C324.1,414.9,280.5,367.7,275.5,365.7
		L275.5,365.7L275.5,365.7z"/>
	
		<linearGradient id="SVGID_4_" gradientUnits="userSpaceOnUse" x1="-699.6831" y1="795.3824" x2="-698.8069" y2="794.2259" gradientTransform="matrix(255.8347 0 0 -242.016 179148.7812 192603.75)">
		<stop  offset="0" style="stop-color:#F26D58"/>
		<stop  offset="1" style="stop-color:#F9A03C"/>
	</linearGradient>
	<path class="st18" d="M420.7,328.2c-2.2,48.2-42.1,86.7-90.8,86.7h-6.6L274.7,367c4-5.6,7.7-11.5,11-17.6h44.2
		c14,0,25.4-11.4,25.4-25.4c0-14-11.4-25.4-25.4-25.4h-26.2c2-10.5,3.1-21.4,3.1-32.5c0-11.3-1.1-22.3-3.2-33h16.2l100.5,99
		C420.5,330.8,420.6,329.5,420.7,328.2L420.7,328.2L420.7,328.2z M132.1,116.9h-26.4v65.5h26.4c46.2,0,83.7,37.6,83.7,83.7
		c0,12.6-2.8,24.5-7.8,35.2l48.2,47.5c15.8-23.7,25.1-52.1,25.1-82.7C281.4,183.9,214.4,116.9,132.1,116.9L132.1,116.9L132.1,116.9z
		"/>
	
		<linearGradient id="SVGID_5_" gradientUnits="userSpaceOnUse" x1="-697.6434" y1="794.6548" x2="-696.3593" y2="793.811" gradientTransform="matrix(160.7307 0 0 -174.8133 112385.8359 139043.2344)">
		<stop  offset="0" style="stop-color:#B84E51"/>
		<stop  offset="1" style="stop-color:#F68E48"/>
	</linearGradient>
	<path class="st19" d="M329.9,116.9h-107c26.1,16,47.8,38.6,62.5,65.5h44.5c14,0,25.4,11.4,25.4,25.4c0,14-11.4,25.4-25.4,25.4h-10
		l100.5,99c0.2-2.7,0.4-5.4,0.4-8.1c0-22.1-7.9-42.4-21.1-58.1c13.2-15.8,21.1-36,21.1-58.1C420.8,157.7,380,116.9,329.9,116.9
		L329.9,116.9L329.9,116.9z"/>
	
		<linearGradient id="SVGID_6_" gradientUnits="userSpaceOnUse" x1="-697.8467" y1="792.0197" x2="-697.7864" y2="790.4937" gradientTransform="matrix(176.7653 0 0 -92.6293 123563.0312 73692.3594)">
		<stop  offset="0" style="stop-color:#F9A03C"/>
		<stop  offset="1" style="stop-color:#F7974E"/>
	</linearGradient>
	<path class="st20" d="M323.3,414.9h-99.7c20.1-12.4,37.4-28.8,51-47.9L323.3,414.9L323.3,414.9z M256.3,348.9L208,301.3
		c-13.3,28.6-42.4,48.5-76,48.5h-26.4v65.5h26.4C183.8,415.4,229.5,388.9,256.3,348.9L256.3,348.9L256.3,348.9z"/>
</g>
</svg>
