<?xml version="1.0" encoding="utf-8"?>
<!-- Generator: Adobe Illustrator 21.1.0, SVG Export Plug-In . SVG Version: 6.00 Build 0)  -->
<svg version="1.1" id="Layer_1" xmlns="http://www.w3.org/2000/svg" xmlns:xlink="http://www.w3.org/1999/xlink" x="0px" y="0px"
	 viewBox="0 0 512 512" style="enable-background:new 0 0 512 512;" xml:space="preserve">
<style type="text/css">
	.st0{fill:#007ACC;}
	.st1{fill:#E34E26;}
	.st2{fill:#EF662A;}
	.st3{fill:#FFFFFF;}
	.st4{fill:#EBEBEB;}
	.st5{fill:#E29530;}
	.st6{fill:#A05D0E;}
	.st7{fill:#261300;stroke:#000000;stroke-miterlimit:10;}
	.st8{fill:#E5A229;}
	.st9{fill:#F1BE21;}
	.st10{fill:#EBEAEA;}
	.st11{fill:#231F20;}
	.st12{fill:#116BAF;}
	.st13{fill:#FFFFFF;stroke:#FFFFFF;stroke-miterlimit:10;}
	.st14{fill:#CF649A;}
	.st15{fill:url(#SVGID_1_);}
	.st16{fill:url(#SVGID_2_);}
	.st17{fill:url(#SVGID_3_);}
	.st18{fill:url(#SVGID_4_);}
	.st19{fill:url(#SVGID_5_);}
	.st20{fill:url(#SVGID_6_);}
	.st21{fill:#F42534;}
</style>
<path class="st3" d="M217.5,361.5c4.1,5.2,8.4,12.5,8.4,22.9c0,25.1-19.7,39.9-48.2,39.9c-7.3,0-13.8-0.9-17.9-2l-7.5,12l22.2,1.4
	c39.2,2.5,62.3,3.6,62.3,33.7c0,26.1-22.9,40.8-62.3,40.8c-41,0-56.6-10.4-56.6-28.3c0-10.2,4.5-15.6,12.5-23.1
	c-7.5-3.2-10-8.8-10-14.9c0-5,2.5-9.5,6.6-13.8c4.1-4.3,8.6-8.6,14-13.6c-11.1-5.4-19.5-17.2-19.5-34c0-26,17.2-43.9,51.9-43.9
	c9.7,0,15.6,0.9,20.8,2.3h44.2v19.2L217.5,361.5z M150.4,464.8c-2.9,3.6-5.9,7.5-5.9,12c0,9.1,11.5,11.8,27.4,11.8
	c13.1,0,31-0.9,31-13.1c0-7.3-8.6-7.7-19.5-8.4L150.4,464.8z M175.3,360.8c-12.5,0-21.7,6.1-21.7,20.8c0,11.1,6.1,18.8,21.1,18.8
	c12.7,0,21.3-7.5,21.3-19.3C196,367.9,188.3,360.8,175.3,360.8z"/>
<path class="st3" d="M248.9,456.5v-17.9l11.6-1.6c3.2-0.5,3.6-1.1,3.6-4.5v-66.6c0-2.5-0.7-4.1-2.9-4.8l-12.2-4.3l2.5-18.3h46.9v94
	c0,3.6,0.2,4.1,3.6,4.5l11.6,1.6v17.9H248.9z M278.2,320.4c-12.9,0-20.4-7.5-20.4-20.4c0-12.9,7.5-19.9,20.4-19.9
	c13.1,0,20.6,7,20.6,19.9C298.8,312.9,291.3,320.4,278.2,320.4z"/>
<path class="st3" d="M403.1,447.7c-9.7,4.8-24,9.1-36.9,9.1c-27,0-37.1-10.9-37.1-36.5V361c0-1.4,0-2.3-1.8-2.3h-15.9v-20.2
	c19.9-2.3,27.9-12.2,30.4-36.9h21.5v32.2c0,1.6,0,2.3,1.8,2.3H397v22.6h-33.8v54.1c0,13.4,3.2,18.6,15.4,18.6
	c6.3,0,12.9-1.6,18.3-3.6L403.1,447.7z"/>
<g>
	<path class="st21" d="M380.4,108.4L276.8,4.9c-6-6-15.6-6-21.6,0l-21.5,21.5L261,53.7c6.3-2.1,13.6-0.7,18.7,4.3
		c5.1,5.1,6.5,12.4,4.3,18.8l26.3,26.3c6.4-2.2,13.7-0.8,18.8,4.3c7.1,7.1,7.1,18.6,0,25.7c-7.1,7.1-18.6,7.1-25.7,0
		c-5.3-5.3-6.7-13.2-4-19.8l-24.5-24.5l0,64.5c1.7,0.9,3.4,2,4.8,3.4c7.1,7.1,7.1,18.6,0,25.7c-7.1,7.1-18.6,7.1-25.7,0
		c-7.1-7.1-7.1-18.6,0-25.7c1.8-1.8,3.8-3.1,6-4V87.7c-2.2-0.9-4.2-2.2-6-4c-5.4-5.4-6.7-13.3-3.9-19.9l-26.9-26.9l-71,71
		c-6,6-6,15.6,0,21.6l103.6,103.6c6,6,15.6,6,21.6,0l103.1-103.1C386.4,124.1,386.4,114.4,380.4,108.4z"/>
</g>
</svg>
