<?xml version="1.0" encoding="utf-8"?>
<!-- Generator: Adobe Illustrator 21.1.0, SVG Export Plug-In . SVG Version: 6.00 Build 0)  -->
<svg version="1.1" id="Layer_1" xmlns="http://www.w3.org/2000/svg" xmlns:xlink="http://www.w3.org/1999/xlink" x="0px" y="0px"
	 viewBox="0 0 44 42" style="enable-background:new 0 0 44 42;" xml:space="preserve">
<style type="text/css">
	.st0{fill-rule:evenodd;clip-rule:evenodd;fill:#FFFFFF;}
	.st1{fill:#FFFFFF;}
</style>
<g>
	<path class="st0" d="M21.9,0.5C10.5,0.5,1.3,9.7,1.3,21c0,9.1,5.9,16.8,14.1,19.5c1,0.2,1.4-0.4,1.4-1c0-0.5,0-2.1,0-3.8
		C11,37,9.8,33.3,9.8,33.3c-0.9-2.4-2.3-3-2.3-3c-1.9-1.3,0.1-1.2,0.1-1.2c2.1,0.1,3.2,2.1,3.2,2.1c1.8,3.1,4.8,2.2,6,1.7
		c0.2-1.3,0.7-2.2,1.3-2.7c-4.6-0.5-9.4-2.3-9.4-10.2c0-2.2,0.8-4.1,2.1-5.5c-0.2-0.5-0.9-2.6,0.2-5.4c0,0,1.7-0.6,5.7,2.1
		c1.6-0.5,3.4-0.7,5.1-0.7c1.7,0,3.5,0.2,5.1,0.7C30.9,8.5,32.7,9,32.7,9c1.1,2.8,0.4,4.9,0.2,5.4c1.3,1.4,2.1,3.3,2.1,5.5
		c0,7.9-4.8,9.6-9.4,10.1c0.7,0.6,1.4,1.9,1.4,3.8c0,2.7,0,5,0,5.6c0,0.5,0.4,1.2,1.4,1c8.2-2.7,14-10.4,14-19.5
		C42.4,9.7,33.2,0.5,21.9,0.5z"/>
	<path class="st1" d="M9.1,30c0,0.1-0.2,0.1-0.4,0.1c-0.1-0.1-0.2-0.2-0.2-0.3c0-0.1,0.2-0.1,0.4-0.1C9.1,29.8,9.2,29.9,9.1,30
		L9.1,30z M8.9,29.8"/>
	<path class="st1" d="M9.9,30.9c-0.1,0.1-0.3,0-0.4-0.1c-0.1-0.1-0.2-0.3-0.1-0.4c0.1-0.1,0.3,0,0.4,0.1C10,30.7,10,30.8,9.9,30.9
		L9.9,30.9z M9.7,30.7"/>
	<path class="st1" d="M10.8,32.1c-0.1,0.1-0.3,0-0.5-0.2c-0.1-0.2-0.1-0.4,0-0.5c0.1-0.1,0.3,0,0.5,0.2C10.9,31.8,10.9,32,10.8,32.1
		L10.8,32.1z M10.8,32.1"/>
	<path class="st1" d="M11.9,33.3c-0.1,0.1-0.4,0.1-0.5-0.1c-0.2-0.2-0.2-0.4-0.1-0.5c0.1-0.1,0.4-0.1,0.5,0.1
		C11.9,32.9,12,33.1,11.9,33.3L11.9,33.3z M11.9,33.3"/>
	<path class="st1" d="M13.4,33.9c0,0.2-0.3,0.2-0.5,0.2c-0.2-0.1-0.4-0.3-0.3-0.4c0-0.2,0.3-0.2,0.5-0.2
		C13.3,33.6,13.4,33.8,13.4,33.9L13.4,33.9z M13.4,33.9"/>
	<path class="st1" d="M15.1,34c0,0.2-0.2,0.3-0.4,0.3c-0.2,0-0.4-0.1-0.4-0.3c0-0.2,0.2-0.3,0.4-0.3C14.9,33.7,15.1,33.9,15.1,34
		L15.1,34z M15.1,34"/>
	<path class="st1" d="M16.6,33.8c0,0.2-0.1,0.3-0.4,0.4c-0.2,0-0.5-0.1-0.5-0.2c0-0.2,0.1-0.3,0.4-0.4
		C16.4,33.5,16.6,33.6,16.6,33.8L16.6,33.8z M16.6,33.8"/>
</g>
</svg>
