<?xml version="1.0" encoding="utf-8"?>
<!-- Generator: Adobe Illustrator 21.1.0, SVG Export Plug-In . SVG Version: 6.00 Build 0)  -->
<svg version="1.1" id="Layer_1" xmlns="http://www.w3.org/2000/svg" xmlns:xlink="http://www.w3.org/1999/xlink" x="0px" y="0px"
	 viewBox="0 0 512 512" style="enable-background:new 0 0 512 512;" xml:space="preserve">
<style type="text/css">
	.st0{fill:#007ACC;}
	.st1{fill:#E34E26;}
	.st2{fill:#EF662A;}
	.st3{fill:#FFFFFF;}
	.st4{fill:#EBEBEB;}
	.st5{fill:#E29530;}
	.st6{fill:#A05D0E;}
	.st7{fill:#261300;stroke:#000000;stroke-miterlimit:10;}
	.st8{fill:#E5A229;}
	.st9{fill:#F1BE21;}
	.st10{fill:#EBEAEA;}
	.st11{fill:#231F20;}
	.st12{fill:#116BAF;}
	.st13{fill:#FFFFFF;stroke:#FFFFFF;stroke-miterlimit:10;}
</style>
<g>
	<path class="st12" d="M167.2,109l1-3.4c-0.6,0,4.6-8,4-8c-38,36.8-34.8,86.1-16.5,121.6c12.8,24.7,36.1,47.9,63.9,60.3
		c12.9,5.8,32.6,11.1,53.2,10.6c44.2-0.9,75.2-21.8,92.7-55.9l1-2.7c-15.4,15.6-40.6,26.4-60.3,28.4
		C224.3,268.4,139.8,194.8,167.2,109z"/>
	<path class="st12" d="M276.2,121.6c10.8,17.4,31.6,32.8,63.9,25.9c8.2-1.7,26.7-15.7,29.9-23c-27.7,18.9-44.9,12.5-53.1,10.2
		c-1.8-0.5-5.9-2.4-9.8-4.7c-8.6-5.2-12.8-7.5-19.5-17.3c-3.7-5.3-7.3-13.8-8.6-18.7c-2-8-1.4-20.4,2.3-31.1
		c-12.5,11.2-14.5,32.8-10.3,47.1C271.6,111.8,274.6,119,276.2,121.6z"/>
	<path class="st12" d="M285.1,213.8c43.4,5.8,75.8-12.4,87-40.8c-12.8,13.6-34.4,23.2-55,23.1c-46.2-0.3-98.1-41.7-92.3-99.4
		c0.5-5,2.5-12.8,7.8-22.9c-15.3,19.3-24.6,35.2-22,61.9C214.1,172.4,248.8,209,285.1,213.8z"/>
</g>
<g>
	<path class="st3" d="M486.3,303.1l-38.4,53.2l-3.5-13.9h-25.2c0,0,2.5,12.7,4.3,19.1c1.8,6.4,5.1,12.8,5.2,19.1
		c0.2,7.3-3.7,21-3.7,21l24.5-0.1c0,0,2.6-13.1,5.2-19.1c1-2.4,3-4.3,4.3-6.1c4.1-5.5,53.9-73,53.9-73L486.3,303.1z"/>
	<path class="st3" d="M435.5,317.4c-5.4-3.2-18.2-1.8-29.2-1.8h-17c-10.6,0-16.9-0.7-18,3.4c-3.3,12.7-17.4,82.6-17.4,82.6h22.6
		l14.8-64.3h12.2c14.1,0,40-0.4,40-0.4S440.5,320.4,435.5,317.4z"/>
	<path class="st3" d="M349,324.2c-4.7-6.6-14.4-8.9-20.9-9.6c-17.1-1.7-31.3,2.8-39.1,8.7c-2.4,1.8-4.3,3.2-6.1,5.2
		c-0.6,0.7-1.3,1.5-1.9,2.4c-0.5,0.7-1.1,1.2-1.6,2c-0.7,1.1-1.5,3.2-2.4,5c-0.7,1.5-1.4,3.2-2,4.6c-4.7,11.8-9.5,33.7-5.2,45.2
		c0.6,1.7,2.1,3.8,2.5,4.5c0.6,0.8,1.2,1.8,1.8,2.5c2.4,2.5,5.8,4.3,9.6,5.2c18.8,4.5,56.5,2.6,56.5,2.6l4.6-20.4
		c0,0-26.7,1.2-39.4-0.4c-1.9-0.2-7.2-0.5-9.9-2.9c-2.4-2.1-5.2-7-3.1-10.1c1.5-2.3,7.3-1.6,12.2-1.7c15.7-0.5,44.3,0,44.3,0
		s5.5-24.4,2.6-34.8C350.9,329.5,350.2,326,349,324.2z M330.3,348.7l-33.7-0.2c0,0-0.4-14.6,19.3-13.9c7,0.2,9.4,1.2,12,5.2
		C331,344.6,330.3,348.7,330.3,348.7z"/>
	<path class="st3" d="M247.9,315.5l-15.6,65.2c0,0-8.7,0.1-11.3,0c-8.3-0.2-11.1-0.5-13-4.3c-2.1-4.1-0.1-9.3,0.9-14.8
		c2.7-15.4,9.1-46.2,9.1-46.2l-22.7,0.2c0,0-4.3,19.8-6.4,29.5c-2.9,13.7-9.1,33.8-2.6,46.1c6.7,12.6,22.4,10.4,40,10.4h25.2
		c6.2-28.3,18.4-86.2,18.4-86.2L247.9,315.5z"/>
	<path class="st3" d="M175.8,325c-1.3-9.7-7.7-20.3-14.6-24.7c-0.3-0.2-1.5-1.2-1.9-1.4c-5.1-3-13.4-5.5-19.1-6.1
		c-29.6-3-47.2,10.1-57.4,27.8c-4,7-6.6,14.6-8.7,22.6c-2.3,8.9-3.9,19.7-2.6,29.6c0.8,5.9,4,14.2,8.7,19.1
		c11.5,12,34.1,10.4,58.2,10.4c7.4,0,25.1-0.1,30.5-0.3c1.7-0.1,6.7-20.3,6.3-20.9c-0.4-0.5-6.3,0.2-13.1-0.4
		C168.6,363.3,178.3,343.2,175.8,325z M145.3,357.2c-2.2,7.8-4.3,15.6-7,22.6c-17.6-0.1-33.9,2.3-39.1-8.7c-3-6.2-1.6-14.6,0-22.6
		c2.2-10.7,4.3-18.5,10.4-25.2c4.8-5.2,16.8-11.5,29.6-7c4.3,1.5,10.8,8.7,11.3,16.5C151,340.2,147.6,349,145.3,357.2z"/>
	<path class="st3" d="M40.1,336.3h24.3c1.5-6.6,3-14.1,4.5-20.8c-8.6,0-15.8-0.1-23.6-0.1C43.5,321.8,42,329,40.1,336.3z"/>
	<path class="st3" d="M29.7,382.4c-3.6,16.9-4.1,34.4-22.6,32.2c-1.8,6.5-4,15.3-6,22.5c7.6,0.2,14.6,0.7,20.8,0.1
		c3.8-0.4,10.7-2.1,12.2-3.5c0.6-0.6,1-0.3,1.7-0.9c8.1-6.3,10.1-15,13-27c4.8-19.1,10.8-46.5,13.9-63.5H39.3
		C38.1,346.3,31.8,372.7,29.7,382.4z"/>
</g>
</svg>
