<?xml version="1.0" encoding="utf-8"?>
<!-- Generator: Adobe Illustrator 21.1.0, SVG Export Plug-In . SVG Version: 6.00 Build 0)  -->
<svg version="1.1" id="Layer_1" xmlns="http://www.w3.org/2000/svg" xmlns:xlink="http://www.w3.org/1999/xlink" x="0px" y="0px"
	 viewBox="0 0 42 42" style="enable-background:new 0 0 42 42;" xml:space="preserve">
<style type="text/css">
	.st0{fill:#F9F7F7;}
</style>
<g>
	<g>
		<path class="st0" d="M1.1,13.9h8.4V41H1.1V13.9z M5.3,0.5c2.7,0,4.9,2.2,4.9,4.9c0,2.7-2.2,4.9-4.9,4.9c-2.7,0-4.9-2.2-4.9-4.9
			C0.4,2.7,2.6,0.5,5.3,0.5"/>
		<path class="st0" d="M14.8,13.9h8.1v3.7H23c1.1-2.1,3.9-4.4,8-4.4c8.5,0,10.1,5.6,10.1,12.9V41h-8.4V27.8c0-3.1-0.1-7.2-4.4-7.2
			c-4.4,0-5,3.4-5,6.9V41h-8.4V13.9z"/>
	</g>
</g>
</svg>
