<?xml version="1.0" encoding="utf-8"?>
<!-- Generator: Adobe Illustrator 21.1.0, SVG Export Plug-In . SVG Version: 6.00 Build 0)  -->
<svg version="1.1" id="Layer_1" xmlns="http://www.w3.org/2000/svg" xmlns:xlink="http://www.w3.org/1999/xlink" x="0px" y="0px"
	 viewBox="0 0 512 512" style="enable-background:new 0 0 512 512;" xml:space="preserve">
<style type="text/css">
	.st0{fill:#007ACC;}
	.st1{fill:#E34E26;}
	.st2{fill:#EF662A;}
	.st3{fill:#FFFFFF;}
	.st4{fill:#EBEBEB;}
	.st5{fill:#E29530;}
	.st6{fill:#A05D0E;}
	.st7{fill:#261300;stroke:#000000;stroke-miterlimit:10;}
	.st8{fill:#E5A229;}
	.st9{fill:#F1BE21;}
	.st10{fill:#EBEAEA;}
	.st11{fill:#231F20;}
	.st12{fill:#116BAF;}
	.st13{fill:#FFFFFF;stroke:#FFFFFF;stroke-miterlimit:10;}
	.st14{fill:#CF649A;}
</style>
<path class="st14" d="M396.6,279.7c-13.2,0.1-24.6,3.2-34.2,8c-3.5-7-7.1-13.1-7.7-17.7c-0.7-5.3-1.5-8.6-0.7-14.9
	c0.8-6.3,4.5-15.3,4.5-16.1c-0.1-0.7-0.8-3.9-8.4-4s-14.2,1.5-14.9,3.5s-2.2,6.6-3.2,11.3c-1.3,6.9-15.2,31.5-23.1,44.4
	c-2.6-5-4.8-9.4-5.2-13c-0.7-5.3-1.5-8.6-0.7-14.9c0.8-6.3,4.5-15.3,4.5-16.1c-0.1-0.7-0.8-3.9-8.4-4c-7.6-0.1-14.2,1.5-14.9,3.5
	c-0.7,2-1.5,6.7-3.2,11.3c-1.5,4.6-20,45.6-24.8,56.3c-2.4,5.5-4.6,9.8-6.1,12.8c-1.5,3-0.1,0.2-0.2,0.5c-1.3,2.5-2.1,3.9-2.1,3.9
	v0.1c-1,1.8-2.1,3.6-2.7,3.6c-0.4,0-1.1-4.9,0.1-11.7c2.7-14.2,9.4-36.4,9.3-37.3c0-0.4,1.3-4.3-4.3-6.3c-5.4-2-7.3,1.3-7.7,1.3
	c-0.4,0-0.8,1.2-0.8,1.2s6-25-11.4-25c-10.9,0-26,11.9-33.4,22.7c-4.7,2.6-14.8,8-25.4,13.9c-4.1,2.2-8.3,4.6-12.2,6.7l-0.8-0.9
	c-21.1-22.5-60.1-38.4-58.5-68.7c0.6-11,4.4-40,74.9-75.1c57.8-28.8,104-20.9,112.1-3.3c11.4,25.1-24.7,71.7-84.8,78.4
	c-22.9,2.6-34.9-6.3-37.9-9.6c-3.2-3.5-3.6-3.6-4.8-3c-1.9,1-0.7,4.1,0,6c1.8,4.6,9.1,12.9,21.7,17c11,3.6,37.8,5.6,70.3-6.9
	c36.4-14.1,64.8-53.2,56.4-85.9c-8.5-33.3-63.7-44.2-115.8-25.7c-31.1,11.1-64.7,28.3-88.9,51c-28.8,26.9-33.3,50.3-31.4,60
	c6.7,34.7,54.6,57.4,73.8,74.1c-1,0.5-1.8,1-2.7,1.5c-9.6,4.7-46.1,23.8-55.3,44c-10.3,22.9,1.6,39.3,9.6,41.5
	c24.6,6.9,49.9-5.5,63.5-25.7c13.6-20.3,12-46.6,5.7-58.6l-0.2-0.4l7.5-4.4c4.9-2.9,9.7-5.5,13.9-7.8c-2.4,6.4-4.1,14-4.9,25.1
	c-1,13,4.3,29.8,11.3,36.4c3.1,2.9,6.8,3,9.1,3c8.1,0,11.8-6.7,15.9-14.8c5-9.8,9.4-21.2,9.4-21.2s-5.5,30.8,9.6,30.8
	c5.5,0,11.1-7.2,13.6-10.8v0.1c0,0,0.1-0.2,0.4-0.7c0.3-0.5,0.6-0.9,0.9-1.4v-0.1c2.2-3.8,7.2-12.6,14.5-27.1
	c9.5-18.7,18.7-42.2,18.7-42.2s0.9,5.8,3.6,15.2c1.6,5.6,5.2,11.7,7.9,17.7c-2.2,3.1-3.5,4.9-3.5,4.9l0.1,0.1
	c-1.8,2.4-3.8,4.9-5.8,7.4c-7.5,9-16.5,19.3-17.7,22.2c-1.4,3.5-1.1,6,1.6,8.1c2,1.5,5.5,1.8,9.3,1.5c6.8-0.4,11.5-2.1,13.9-3.2
	c3.7-1.3,7.9-3.3,12-6.3c7.4-5.5,11.9-13.2,11.4-23.5c-0.2-5.7-2.1-11.3-4.4-16.6c0.7-1,1.3-1.9,2-3c11.7-17,20.7-35.8,20.7-35.8
	s0.9,5.8,3.6,15.2c1.4,4.8,4.2,10,6.7,15.2c-10.9,8.9-17.8,19.3-20.1,26c-4.4,12.5-1,18.2,5.5,19.5c2.9,0.6,7-0.7,10.1-2.1
	c3.8-1.3,8.5-3.4,12.8-6.6c7.4-5.5,14.5-13.1,14.1-23.3c-0.2-4.7-1.5-9.4-3.2-13.8c9.3-3.8,21.3-6,36.6-4.2
	c32.8,3.8,39.3,24.3,38.1,32.9c-1.3,8.6-8.1,13.3-10.4,14.8c-2.3,1.4-3,1.9-2.8,3c0.3,1.5,1.3,1.5,3.3,1.2c2.7-0.4,17.3-7,17.9-22.8
	C450,301.6,430.8,279.4,396.6,279.7L396.6,279.7z M143.4,365c-10.8,11.9-26.1,16.4-32.6,12.5c-7-4.1-4.3-21.5,9.1-34.2
	c8.1-7.7,18.7-14.8,25.6-19.1c1.5-1,3.9-2.4,6.7-4.1c0.4-0.3,0.7-0.4,0.7-0.4c0.5-0.3,1.1-0.7,1.7-1
	C159.6,336.8,154.9,352.5,143.4,365L143.4,365z M222.7,311.1c-3.8,9.2-11.7,32.9-16.5,31.6c-4.1-1.1-6.6-19-0.8-36.7
	c3-8.9,9.2-19.5,12.9-23.7c6-6.6,12.5-8.9,14.1-6.1C234.3,279.7,225.1,305.3,222.7,311.1z M288.2,342.4c-1.6,0.8-3.1,1.4-3.8,1
	c-0.5-0.3,0.7-1.4,0.7-1.4s8.2-8.8,11.4-12.8c1.8-2.4,4.1-5.1,6.4-8.2v0.9C302.9,332.4,292.7,339.5,288.2,342.4L288.2,342.4z
	 M338.6,330.8c-1.2-0.9-1-3.6,3-12.2c1.5-3.4,5.1-9.1,11.2-14.5c0.7,2.2,1.2,4.4,1.1,6.3C353.8,323.8,344.4,328.8,338.6,330.8z"/>
</svg>
