<?xml version="1.0" encoding="utf-8"?>
<!-- Generator: Adobe Illustrator 21.1.0, SVG Export Plug-In . SVG Version: 6.00 Build 0)  -->
<svg version="1.1" id="Layer_1" xmlns="http://www.w3.org/2000/svg" xmlns:xlink="http://www.w3.org/1999/xlink" x="0px" y="0px"
	 viewBox="0 0 50 42" style="enable-background:new 0 0 50 42;" xml:space="preserve">
<style type="text/css">
	.st0{fill:#FFFFFF;}
</style>
<g>
	<g>
		<circle class="st0" cx="46.5" cy="20.9" r="2.5"/>
		<circle class="st0" cx="39.9" cy="20.9" r="2.3"/>
		<circle class="st0" cx="39.9" cy="14.7" r="2.3"/>
		<circle class="st0" cx="39.9" cy="27.2" r="2.3"/>
		<circle class="st0" cx="33.4" cy="27.2" r="2"/>
		<circle class="st0" cx="33.4" cy="33.5" r="2"/>
		<circle class="st0" cx="33.4" cy="20.9" r="2"/>
		<circle class="st0" cx="33.4" cy="14.7" r="2"/>
		<circle class="st0" cx="33.4" cy="8.3" r="2"/>
		<circle class="st0" cx="27.5" cy="8.3" r="1.7"/>
		<circle class="st0" cx="27.5" cy="14.7" r="1.7"/>
		<circle class="st0" cx="21.7" cy="14.7" r="1.5"/>
		<circle class="st0" cx="21.7" cy="20.9" r="1.5"/>
		<circle class="st0" cx="21.7" cy="27.2" r="1.5"/>
		<circle class="st0" cx="16.9" cy="14.7" r="1.4"/>
		<circle class="st0" cx="16.9" cy="20.9" r="1.4"/>
		<circle class="st0" cx="16.9" cy="27.2" r="1.4"/>
		<circle class="st0" cx="12.4" cy="14.7" r="1.2"/>
		<circle class="st0" cx="12.4" cy="20.9" r="1.2"/>
		<circle class="st0" cx="12.4" cy="27.2" r="1.2"/>
		<circle class="st0" cx="8.6" cy="14.7" r="1"/>
		<circle class="st0" cx="8.6" cy="20.9" r="1"/>
		<circle class="st0" cx="8.6" cy="27.2" r="1"/>
		<circle class="st0" cx="4.7" cy="14.7" r="0.7"/>
		<circle class="st0" cx="4.7" cy="20.9" r="0.7"/>
		<circle class="st0" cx="4.7" cy="27.2" r="0.7"/>
		<circle class="st0" cx="1.5" cy="14.7" r="0.5"/>
		<circle class="st0" cx="1.5" cy="20.9" r="0.5"/>
		<circle class="st0" cx="1.5" cy="27.2" r="0.5"/>
		<circle class="st0" cx="27.5" cy="20.9" r="1.7"/>
		<circle class="st0" cx="27.5" cy="27.2" r="1.7"/>
		<circle class="st0" cx="27.5" cy="33.5" r="1.7"/>
		<circle class="st0" cx="27.5" cy="39.7" r="1.7"/>
		<circle class="st0" cx="27.5" cy="2.2" r="1.7"/>
		<circle class="st0" cx="27.5" cy="33.5" r="1.7"/>
	</g>
</g>
</svg>
