<?xml version="1.0" encoding="utf-8"?>
<!-- Generator: Adobe Illustrator 21.1.0, SVG Export Plug-In . SVG Version: 6.00 Build 0)  -->
<svg version="1.1" id="Layer_1" xmlns="http://www.w3.org/2000/svg" xmlns:xlink="http://www.w3.org/1999/xlink" x="0px" y="0px"
	 viewBox="0 0 512 512" style="enable-background:new 0 0 512 512;" xml:space="preserve">
<style type="text/css">
	.st0{fill:#007ACC;}
	.st1{fill:#E34E26;}
	.st2{fill:#EF662A;}
	.st3{fill:#FFFFFF;}
	.st4{fill:#EBEBEB;}
	.st5{fill:#E29530;}
	.st6{fill:#A05D0E;}
	.st7{fill:#261300;stroke:#000000;stroke-miterlimit:10;}
	.st8{fill:#E5A229;}
	.st9{fill:#F1BE21;}
	.st10{fill:#EBEAEA;}
	.st11{fill:#231F20;}
	.st12{fill:#116BAF;}
	.st13{fill:#FFFFFF;stroke:#FFFFFF;stroke-miterlimit:10;}
	.st14{font-family:'MyriadPro-Regular';}
	.st15{font-size:151px;}
	.st16{letter-spacing:1;}
</style>
<rect x="101.5" y="29.3" class="st0" width="300" height="300"/>
<text transform="matrix(1 0 0 1.01 228 308.5)" class="st13 st14 st15 st16">TS</text>
<path class="st3" d="M63.8,357.9H37.2v82.2H26.4v-82.2H0v-9.7h63.8V357.9z"/>
<path class="st3" d="M113.8,374.4l-30.3,76.2C78.2,464.2,70.6,471,60.9,471c-2.8,0-5-0.3-6.8-0.8v-9.4c2.3,0.8,4.4,1.1,6.2,1.1
	c5.3,0,9.2-3.2,12-9.5l5.2-12.5l-25.6-65.6h11.7l17.8,50.5c0.2,0.6,0.6,2.3,1.3,5h0.3c0.2-1,0.6-2.6,1.3-4.9l18.6-50.7H113.8z
	 M130.9,430.5h-0.3v39.7h-10.5v-95.8h10.5v11.5h0.3c5.2-8.7,12.8-13.1,22.7-13.1c8.4,0,15.1,2.9,19.7,8.7c4.7,5.8,7.1,13.8,7.1,23.6
	c0,11-2.8,19.7-8.1,26.4c-5.3,6.6-12.6,9.9-21.9,9.9C142.3,441.7,135.6,438,130.9,430.5L130.9,430.5z M130.8,404.2v9.2
	c0,5.5,1.8,10,5.3,13.8c3.6,3.7,7.9,5.7,13.4,5.7c6.3,0,11.3-2.4,15.1-7.3c3.6-4.9,5.3-11.7,5.3-20.4c0-7.3-1.6-13.1-5-17.2
	c-3.4-4.2-7.9-6.2-13.8-6.2c-6.2,0-11,2.1-14.7,6.3C132.6,392.3,130.8,397.7,130.8,404.2L130.8,404.2z M244.9,409.8h-46.3
	c0.2,7.3,2.1,12.9,5.8,17c3.7,4,8.9,6,15.5,6c7.4,0,14.2-2.4,20.4-7.3v9.9c-5.8,4.2-13.4,6.3-22.8,6.3c-9.2,0-16.5-2.9-21.9-8.9
	c-5.3-6-7.9-14.4-7.9-25.1c0-10.2,2.9-18.6,8.7-24.9c5.8-6.5,12.9-9.7,21.5-9.7c8.6,0,15.2,2.8,19.9,8.4c4.7,5.5,7.1,13.3,7.1,23.1
	L244.9,409.8z M234,400.9c0-6.2-1.5-10.8-4.4-14.2c-2.9-3.4-7-5-12-5s-9.2,1.8-12.6,5.3c-3.4,3.6-5.7,8.3-6.5,13.9H234z
	 M250.1,436.8v-7.3c6.6,4.2,13.3,6.3,20.1,6.3c7.1,0,12.6-1.5,16.3-4.5c3.7-3.1,5.5-7.1,5.5-12.5c0-4.7-1.3-8.4-3.7-11.3
	c-2.4-2.8-7.9-6.6-16.2-11.5c-9.4-5.5-15.2-10-17.6-13.6c-2.4-3.7-3.7-7.9-3.7-12.6c0-6.5,2.6-12,7.6-16.5c5-4.5,11.8-6.8,20.2-6.8
	c5.5,0,11,1,16.3,2.8v6.6c-5.3-2.4-11.2-3.7-17.3-3.7c-6.3,0-11.2,1.6-14.9,4.7c-3.7,3.2-5.5,7.1-5.5,12c0,4.7,1.3,8.4,3.7,11.2
	c2.4,2.8,7.9,6.6,16.2,11.3c8.6,4.9,14.2,9.2,17.2,12.9c2.9,3.7,4.2,8.1,4.2,13.1c0,7.1-2.4,12.8-7.3,17.3s-11.8,6.6-20.7,6.6
	c-3.2,0-6.8-0.5-11-1.5C255.2,439,252.2,438.1,250.1,436.8L250.1,436.8z M353.2,437.2c-4.9,2.9-10.7,4.5-17.5,4.5
	c-8.9,0-16.2-3.1-21.7-9.2c-5.5-6.2-8.3-14.1-8.3-24.1c0-10.4,3.1-18.9,9.2-25.6c6.2-6.6,14.1-10,23.8-10c5,0,9.9,1,14.6,3.1v6.6
	c-4.7-2.9-9.9-4.4-15.4-4.4c-7.8,0-13.9,2.8-18.8,8.3c-4.9,5.5-7.1,12.8-7.1,21.5c0,8.6,2.3,15.4,6.6,20.6s10.2,7.8,17.3,7.8
	c6.6,0,12.3-1.8,17.2-5.2V437.2L353.2,437.2z M392.3,380.5c-1.9-1.5-4.2-2.1-7-2.1c-5.2,0-9.5,2.8-12.9,8.1
	c-3.6,5.3-5.2,12.9-5.2,22.8v30.9h-5.8v-65.9h5.8v14.6h0.3c1.5-5,3.9-8.9,7.1-11.7c3.2-2.8,7-4.2,11.3-4.2c2.4,0,4.7,0.3,6.5,1.1
	v6.3H392.3z M401.7,357.9c-1.3,0-2.4-0.5-3.4-1.5c-1-1-1.5-2.1-1.5-3.6c0-1.5,0.5-2.6,1.5-3.4c1-0.8,2.1-1.3,3.4-1.3
	c1.3,0,2.4,0.5,3.6,1.3c1,0.8,1.5,1.9,1.5,3.4c0,1.3-0.5,2.6-1.5,3.6C404.2,357.4,403,357.9,401.7,357.9z M398.8,440.1v-65.7h5.8
	v65.7H398.8z M424.9,428.4h-0.3v41.9h-5.8v-96h5.8V388h0.3c2.4-4.9,5.7-8.6,10-11.2c4.4-2.6,9.2-3.9,14.4-3.9
	c8.4,0,14.9,2.9,19.6,8.6c4.7,5.8,7,13.6,7,23.5c0,11-2.8,19.9-8.1,26.7c-5.3,6.8-12.5,10.2-21.2,10.2
	C436.8,441.7,429.6,437.3,424.9,428.4z M424.5,404v8.3c0,6.6,2.1,12.3,6.2,17c4.2,4.7,9.5,7.1,16.3,7.1c6.6,0,12.1-2.9,16.3-8.6
	c4.2-5.8,6.3-13.3,6.3-22.7c0-8.3-1.9-14.7-5.8-19.6c-3.9-4.9-8.9-7.3-15.4-7.3c-7.6,0-13.6,2.6-17.8,7.8
	C426.5,391.2,424.5,397,424.5,404z M511.6,439.1c-3.1,1.5-6,2.1-8.6,2.1c-9.7,0-14.6-5.8-14.6-17.5v-43.9h-11.8v-5.3h11.8v-17.2
	l2.9-1l2.9-1v19.1h17.3v5.3h-17.3v43.4c0,4.5,0.6,7.8,2.1,9.9c1.5,2.1,3.9,3.1,7.3,3.1c2.4,0,5-0.8,7.9-2.4L511.6,439.1L511.6,439.1
	z"/>
</svg>
