<svg id="Layer_1" data-name="Layer 1" xmlns="http://www.w3.org/2000/svg" xmlns:xlink="http://www.w3.org/1999/xlink" viewBox="0 0 512 512"><defs><style>.cls-1{fill:none;}.cls-2{clip-path:url(#clip-path);}.cls-3{fill:#00749a;}</style><clipPath id="clip-path"><rect class="cls-1" x="64.94" y="62.69" width="386.37" height="386.38"/></clipPath></defs><title>wordpress-logo</title><g class="cls-2"><path class="cls-3" d="M636.91,289.67l25.83-76.4c7.49-22.09,4.13-28.45-19.84-28.45v-7.49h70.4v7.49c-23.59,0-29.21,5.61-38.57,32.95L632,345.84h-4.87L589,228.62,550,345.84h-4.87L503.59,217.76c-9-27.34-15-32.95-36.7-32.95v-7.49H550v7.49c-22.1,0-28.09,5.24-20.22,28.45l25.09,76.4,37.82-112.35h7.12Z"/><path class="cls-3" d="M92.4,255.87A165.76,165.76,0,0,0,185.8,405l-79.06-216.6A165.1,165.1,0,0,0,92.4,255.87Z"/><path class="cls-3" d="M370,247.51c0-20.48-7.36-34.67-13.67-45.71-8.4-13.65-16.27-25.21-16.27-38.86,0-15.23,11.55-29.42,27.83-29.42.74,0,1.43.09,2.15.13a165.7,165.7,0,0,0-250.39,31.2c3.89.12,7.56.19,10.66.19,17.33,0,44.17-2.1,44.17-2.1,8.93-.53,10,12.6,1.07,13.65,0,0-9,1.06-19,1.58l60.35,179.51,36.27-108.77-25.83-70.74c-8.92-.52-17.38-1.58-17.38-1.58-8.93-.52-7.88-14.18,1-13.65,0,0,27.37,2.1,43.65,2.1,17.33,0,44.17-2.1,44.17-2.1,8.94-.53,10,12.6,1.06,13.65,0,0-9,1.06-19,1.58l59.89,178.15,16.53-55.24C364.55,278.16,370,261.69,370,247.51Z"/><path class="cls-3" d="M261,270.37,211.31,414.85a165.74,165.74,0,0,0,101.85-2.64,13.65,13.65,0,0,1-1.18-2.28Z"/><path class="cls-3" d="M403.55,176.36a127.38,127.38,0,0,1,1.12,17c0,16.82-3.14,35.72-12.6,59.36L341.44,399.12a165.76,165.76,0,0,0,62.11-222.77Z"/><path class="cls-3" d="M258.13,62.69c-106.52,0-193.19,86.66-193.19,193.18s86.66,193.2,193.19,193.2,193.2-86.66,193.2-193.2S364.64,62.69,258.13,62.69Zm0,377.52C156.49,440.2,73.8,357.51,73.8,255.87S156.49,71.55,258.13,71.55s184.32,82.69,184.32,184.32S359.76,440.2,258.13,440.2Z"/></g></svg>